Coordinates
version=1
nRows=7
nColumns=42
inDegrees=yes

Units are S.I. units (second, meters, Newtons, ...)
If the header above contains a line with 'inDegrees', this indicates whether rotational values are in degrees (yes) or radians (no).

endheader
time	pelvis_tilt	pelvis_list	pelvis_rotation	pelvis_tx	pelvis_ty	pelvis_tz	hip_flexion_r	hip_adduction_r	hip_rotation_r	knee_angle_r	knee_adduction_r	knee_angle_r_beta	ankle_angle_r	subtalar_angle_r	mtp_angle_r	hip_flexion_l	hip_adduction_l	hip_rotation_l	knee_angle_l	knee_adduction_l	knee_angle_l_beta	ankle_angle_l	subtalar_angle_l	mtp_angle_l	lumbar_extension	lumbar_bending	lumbar_rotation	arm_flex_r	arm_add_r	arm_rot_r	elbow_flex_r	pro_sup_r	wrist_flex_r	wrist_dev_r	arm_flex_l	arm_add_l	arm_rot_l	elbow_flex_l	pro_sup_l	wrist_flex_l	wrist_dev_l
      2.07000000	     -0.18787849	     -7.87657409	     -8.09030856	     -0.54554506	      0.82522915	      0.24451840	      4.80516834	      5.95314468	    -28.15606092	     21.34336810	     -4.23009347	      0.37251205	     20.94515383	     34.57354863	     -7.60963800	     26.62333497	    -18.15061087	    -23.49813706	     50.51629741	    -13.38356285	      0.88167572	     17.23612522	     17.22993757	     -7.60963800	    -29.12356853	      7.09472751	      1.54631830	     -8.28319196	     -3.36761262	    -11.72381022	    107.55586219	     90.00000001	      0.00000000	      0.00000000	      3.73823597	     -9.12323103	    -16.47280865	     53.59017101	     90.00000001	      0.00000000	      0.00000000
      2.08000000	     -0.13281034	     -7.95806060	     -8.51451673	     -0.54342571	      0.82544111	      0.24344347	      4.52089575	      5.91631299	    -27.81998554	     21.23738599	     -4.19291854	      0.37066231	     20.92169768	     35.00825578	     -7.60629584	     26.54779365	    -18.21594465	    -24.23461690	     48.76882652	    -13.35782732	      0.85117660	     17.10768479	     18.99174481	     -7.60629584	    -29.38546138	      6.98687020	      1.60946952	     -8.34481939	     -3.32939537	    -11.67514659	    107.59354237	     90.00000001	      0.00000000	      0.00000000	      3.90518282	     -9.16456492	    -16.35424475	     53.24089055	     90.00000001	      0.00000000	      0.00000000
      2.09000000	     -0.33802530	     -8.13277690	     -8.92485588	     -0.54147483	      0.82530587	      0.24234523	      4.60424370	      6.05970579	    -27.74474674	     21.23331998	     -4.33347413	      0.37059134	     20.88713379	     34.83410918	     -7.60525096	     26.79107642	    -18.37740470	    -24.20896290	     47.43798392	    -12.89468605	      0.82794901	     17.12462140	     19.09834029	     -7.60525096	    -29.38380476	      7.03081434	      1.62520702	     -8.37292699	     -3.30613525	    -11.64214548	    107.58124181	     90.00000001	      0.00000000	      0.00000000	      3.93236119	     -9.25027398	    -16.33256824	     53.26697191	     90.00000001	      0.00000000	      0.00000000
      2.10000000	     -0.43636895	     -8.22285278	     -9.31919183	     -0.53934189	      0.82538337	      0.24117480	      4.53210435	      6.08799901	    -27.48080317	     21.20112773	     -4.39017831	      0.37002948	     20.81012957	     34.79078249	     -7.60391581	     26.79912372	    -18.43745973	    -24.22621131	     46.10604959	    -12.40431254	      0.80470237	     16.92550863	     19.45006293	     -7.60391581	    -29.42081259	      6.95228424	      1.61681300	     -8.44338475	     -3.27939562	    -11.60680120	    107.58305787	     90.00000001	      0.00000000	      0.00000000	      4.01850980	     -9.31207555	    -16.27909499	     53.23052558	     90.00000001	      0.00000000	      0.00000000
      2.11000000	     -0.46091887	     -8.31873809	     -9.73060329	     -0.53711177	      0.82564537	      0.23989189	      4.35969614	      6.08272796	    -27.23728847	     21.13674442	     -4.38674325	      0.36890578	     20.70177293	     34.83001190	     -7.60239768	     26.63963548	    -18.49065180	    -24.34707753	     44.86042144	    -11.98935125	      0.78296206	     16.57712589	     19.98104501	     -7.60239768	    -29.54286540	      6.89304811	      1.64666341	     -8.51945334	     -3.24660647	    -11.58323506	    107.62735928	     90.00000001	      0.00000000	      0.00000000	      4.13221620	     -9.41331559	    -16.21812249	     53.10829575	     90.00000001	      0.00000000	      0.00000000
      2.12000000	     -0.53638299	     -8.47010453	    -10.18465255	     -0.53487080	      0.82593343	      0.23860403	      4.24774224	      6.12075305	    -27.06575245	     21.12690862	     -4.38021581	      0.36873412	     20.56505986	     34.77688552	     -7.60090497	     26.48712127	    -18.61663348	    -24.41968449	     43.75861475	    -11.61755768	      0.76373190	     16.28446874	     20.38074691	     -7.60090497	    -29.61519298	      6.85378710	      1.67898745	     -8.59832984	     -3.21623563	    -11.57301825	    107.66841219	     90.00000001	      0.00000000	      0.00000000	      4.19121108	     -9.50426932	    -16.15440078	     52.98655418	     90.00000001	      0.00000000	      0.00000000
      2.13000000	     -0.70887588	     -8.66464620	    -10.61938580	     -0.53260171	      0.82612185	      0.23718042	      4.25992149	      6.19420419	    -27.01403748	     21.17404584	     -4.34538090	      0.36955682	     20.48965184	     34.61479509	     -7.60021928	     26.45566367	    -18.81539661	    -24.41657307	     42.95096817	    -11.23307606	      0.74963581	     16.19213676	     20.40715860	     -7.60021928	    -29.57292786	      6.92694027	      1.67068583	     -8.65920818	     -3.19362243	    -11.56196722	    107.65858502	     90.00000001	      0.00000000	      0.00000000	      4.17287727	     -9.60403179	    -16.14352363	     52.97119571	     90.00000001	      0.00000000	      0.00000000
